HIERARCHY
ROOT Hips
{
 OFFSET 0.000000 0.000000 0.000000
 CHANNELS 6 Xposition Yposition Zposition Yrotation Xrotation Zrotation
 JOINT Chest
 {
  OFFSET 0.000000 9.585900 0.002600
  CHANNELS 3 Yrotation Xrotation Zrotation
  JOINT Chest2
  {
   OFFSET 0.000000 9.601200 -0.005300
   CHANNELS 3 Yrotation Xrotation Zrotation
   JOINT Chest3
   {
    OFFSET 0.000000 9.561800 0.000000
    CHANNELS 3 Yrotation Xrotation Zrotation
    JOINT Chest4
    {
     OFFSET 0.000000 9.552100 0.000000
     CHANNELS 3 Yrotation Xrotation Zrotation
     JOINT Neck
     {
      OFFSET 0.000000 14.453000 0.000000
      CHANNELS 3 Yrotation Xrotation Zrotation
      JOINT Head
      {
       OFFSET 0.000000 8.936500 -0.011300
       CHANNELS 3 Yrotation Xrotation Zrotation
       End Site
       {
        OFFSET 0.000000 17.073600 -0.006000
       }
      }
     }
     JOINT RightCollar
     {
      OFFSET -2.921100 9.558500 0.000000
      CHANNELS 3 Yrotation Xrotation Zrotation
      JOINT RightShoulder
      {
       OFFSET -13.519700 0.000000 0.000000
       CHANNELS 3 Yrotation Xrotation Zrotation
       JOINT RightElbow
       {
        OFFSET 0.000000 -29.696600 0.000000
        CHANNELS 3 Yrotation Xrotation Zrotation
        JOINT RightWrist
        {
         OFFSET 0.000000 -24.004700 0.000000
         CHANNELS 3 Yrotation Xrotation Zrotation
         End Site
         {
          OFFSET 0.000000 -17.728500 0.000000
         }
        }
       }
      }
     }
     JOINT LeftCollar
     {
      OFFSET 2.921100 9.558500 0.000000
      CHANNELS 3 Yrotation Xrotation Zrotation
      JOINT LeftShoulder
      {
       OFFSET 13.519700 0.000000 0.000000
       CHANNELS 3 Yrotation Xrotation Zrotation
       JOINT LeftElbow
       {
        OFFSET 0.000000 -29.696600 0.000000
        CHANNELS 3 Yrotation Xrotation Zrotation
        JOINT LeftWrist
        {
         OFFSET 0.000000 -24.004700 0.000000
         CHANNELS 3 Yrotation Xrotation Zrotation
         End Site
         {
          OFFSET 0.000000 -17.728500 0.000000
         }
        }
       }
      }
     }
    }
   }
  }
 }
 JOINT RightHip
 {
  OFFSET -7.771700 -0.012900 -0.001300
  CHANNELS 3 Yrotation Xrotation Zrotation
  JOINT RightKnee
  {
   OFFSET 0.000000 -40.869800 0.001200
   CHANNELS 3 Yrotation Xrotation Zrotation
   JOINT RightAnkle
   {
    OFFSET 0.000000 -39.717900 0.002100
    CHANNELS 3 Yrotation Xrotation Zrotation
    JOINT RightToe
    {
     OFFSET 0.000000 -4.965400 11.033500
     CHANNELS 3 Yrotation Xrotation Zrotation
     End Site
     {
      OFFSET 0.000000 -1.423100 5.872300
     }
    }
   }
  }
 }
 JOINT LeftHip
 {
  OFFSET 7.771700 -0.012900 -0.001300
  CHANNELS 3 Yrotation Xrotation Zrotation
  JOINT LeftKnee
  {
   OFFSET 0.000000 -40.869800 0.001200
   CHANNELS 3 Yrotation Xrotation Zrotation
   JOINT LeftAnkle
   {
    OFFSET 0.000000 -39.717900 0.002100
    CHANNELS 3 Yrotation Xrotation Zrotation
    JOINT LeftToe
    {
     OFFSET 0.000000 -4.965400 11.033500
     CHANNELS 3 Yrotation Xrotation Zrotation
     End Site
     {
      OFFSET 0.000000 -1.423100 5.872300
     }
    }
   }
  }
 }
}
MOTION
Frames: 5
Frame Time: 0.008333
0.000000 85.388000 0.000000 0.000000 -5.767877 0.000000 0.000000 11.653817 0.000000 0.000000 -5.885947 0.000000 0.000000 -0.000000 0.000000 0.000000 -0.000000 0.000000 0.000000 12.528835 0.000000 0.000000 0.711642 0.000000 0.000000 -0.000000 0.000000 0.000000 0.000000 -90.000000 0.000000 -2.309062 0.000000 0.000000 2.309062 0.000000 0.000000 -0.000000 0.000000 0.000000 -0.000000 90.000000 0.000000 -2.309062 0.000000 0.000000 2.309062 0.000000 0.000000 8.520406 0.000000 0.000000 1.905762 0.000000 -0.000000 -4.658285 0.000000 0.000000 -0.000000 0.000000 0.000000 8.520406 0.000000 0.000000 1.905762 0.000000 -0.000000 -4.658285 0.000000 0.000000 -0.000000 0.000000
-43.842513 57.761653 11.171153 178.291323 -42.697957 -4.049323 4.109417 22.183276 1.666879 2.176262 12.660400 0.775315 2.765164 15.820024 1.053165 2.176281 12.660423 0.775296 -0.698943 16.040806 4.647834 -2.969145 -5.865820 9.024884 2.466394 4.499840 0.917283 -8.088171 -14.271750 -4.170552 -43.903143 -35.359479 98.479134 -4.406101 -12.556621 -7.238664 -9.179941 0.200906 -0.240563 3.936488 -12.331549 10.511788 32.552327 -10.223268 -93.945374 9.998846 -11.676036 -13.735754 3.771349 -28.805279 -2.616201 -38.081800 74.347710 -42.522793 5.629817 -15.462594 12.090281 -0.027919 -0.110895 -0.045645 -7.275928 -26.003364 5.615328 90.400325 81.128695 91.870473 1.410549 -22.705725 -19.038328 0.128776 0.121128 0.055523
-43.841737 57.766213 11.185358 178.283053 -42.822576 -4.048156 4.075787 22.171628 1.682382 2.167441 12.663386 0.790573 2.754686 15.823710 1.072178 2.167459 12.663406 0.790602 -0.684930 16.132585 4.668389 -2.928741 -5.668642 8.982838 2.446782 4.493846 0.943303 -7.933626 -14.335061 -4.293365 -43.427282 -35.076746 98.096747 -4.576717 -12.566897 -7.303263 -9.195557 0.259422 -0.245632 3.935786 -12.396468 10.516874 32.611006 -10.477365 -93.835972 9.657771 -11.431251 -13.463720 3.756998 -28.682385 -2.607450 -38.007710 74.331045 -42.450610 5.621626 -15.422846 12.127342 -0.013891 -0.120321 -0.080457 -7.338299 -25.883039 5.637304 90.383537 81.117097 91.789983 1.398071 -22.663650 -19.036976 0.130052 0.101326 0.050742
-43.841174 57.771338 11.202296 178.271385 -42.963635 -4.043906 4.049381 22.175515 1.698591 2.159616 12.665552 0.806025 2.745423 15.826368 1.091382 2.159609 12.665542 0.806071 -0.659866 16.241263 4.689545 -2.875745 -5.448349 8.940134 2.419040 4.489990 0.974307 -7.773078 -14.407352 -4.413519 -42.901420 -34.826104 97.604831 -4.698130 -12.581192 -7.369714 -9.213963 0.326714 -0.244428 3.951200 -12.438496 10.490256 32.665818 -10.774580 -93.726206 9.241600 -11.144660 -12.951415 3.738894 -28.540644 -2.598516 -37.912963 74.311789 -42.362838 5.637976 -15.393694 12.141642 -0.049557 -0.117935 -0.083537 -7.334402 -25.744638 5.629216 90.244939 81.109241 91.643756 1.387482 -22.629368 -19.042898 0.136205 0.091685 0.051875
-43.840682 57.775357 11.223021 178.249166 -43.102630 -4.033054 4.032387 22.174249 1.715452 2.152511 12.666719 0.821423 2.737057 15.827704 1.110411 2.152500 12.666676 0.821464 -0.626989 16.372479 4.688114 -2.804417 -5.207879 8.918254 2.382828 4.492748 1.008379 -7.605549 -14.491653 -4.526418 -42.312112 -34.570344 96.977685 -4.732042 -12.602930 -7.407952 -9.233961 0.405861 -0.237716 3.965505 -12.483325 10.454355 32.727398 -11.074395 -93.612397 8.742938 -10.805248 -12.182824 3.686701 -28.400487 -2.602381 -37.710840 74.285572 -42.178381 5.705585 -15.359907 12.143168 -0.078381 -0.112563 -0.108035 -7.324448 -25.609467 5.621680 90.095600 81.102409 91.487454 1.378682 -22.594063 -19.049514 0.141738 0.084102 0.051547
